<svg xmlns="http://www.w3.org/2000/svg" viewBox="0 0 229.55 519.38"><defs><style>.cls-1{fill:#2160be;}.cls-2{fill:#570d0d;}.cls-3{fill:#17572b;}.cls-4{fill:#1751a5;}.cls-5{fill:#160245;}.cls-6{fill:#18024d;}.cls-7{fill:#290481;}</style></defs><g id="Calque_2" data-name="Calque 2"><g id="Calque_1-2" data-name="Calque 1"><path class="cls-1" d="M79.61,219.71H59.67v-9.94c0-8.44-.12-16.88.11-25.31.11-3.61-.85-5.09-4.69-4.86-5.11.3-10.25.07-15.38.08,0-2.48.45-5.09-.21-7.38-.34-1.17-2.69-2.48-4.11-2.46-1.88,0-5,.9-5.41,2.11-1.88,5.8-.21,7.71,5.78,7.72h4q0,4.92,0,9.84H19.84v-9.79H9.94V169.9h9.94V159.66c4.95,0,9.91-.22,14.84.08,3.86.23,5.24-1,5.11-5-.11-3.6-.65-5.51-4.88-5.2-5.09.38-10.22.11-15.34.13H0v-10H9.49v-9.77H.05V109.59H19.66c0,8.65.12,17.31,0,26,0,2.87.67,4.25,3.88,4.18,7.48-.19,15-.22,22.47,0,3.89.12,3.79-2.17,3.7-4.81s.69-5.54-3.71-5.3a117.09,117.09,0,0,1-13-.05c-1.12-.07-2.87-1.13-3.15-2.07-1.7-5.79-.05-7.82,5.91-7.83h4c9.93,0,9.93,0,9.92-10h20c0,2.48-.45,5.09.21,7.38.34,1.17,2.68,2.48,4.1,2.45,1.89,0,5-.89,5.42-2.1,1.87-5.8.2-7.71-5.78-7.72h-4a36.67,36.67,0,0,1,0-4.92c.58-4.22-1.26-5.42-5.27-5.16-4.91.31-9.85.07-14.77.08a43.33,43.33,0,0,1,0-5c.44-3.78-.78-5.49-4.9-5.11a74.93,74.93,0,0,1-11.41,0c-3.85-.24-3.86,2.08-3.72,4.75.12,2.52-.83,5.53,3.61,5.35,5.46-.22,10.93-.06,16.4-.06v10l-30.09-.06v-30h20a38.86,38.86,0,0,1,5,.07c4.2.58,5.5-1.18,5.23-5.27-.33-4.93-.1-9.91-.12-14.86V39.84H59.73c0,8.49.09,17-.07,25.48-.06,3.13.76,4.89,4.16,4.34,4.92-.8,6.65,1.36,5.91,6.07-.48,3.07,1,4.09,4,4,5.32-.18,10.66,0,16,0v0c0,10,0,10,10,10v0l.06,10.12V109.9H89.7v19.76H79.79v10c-2.48,0-5.07-.35-7.42.23-1.11.27-2.55,2.4-2.48,3.6.12,2.09.84,5.49,2.12,5.92,5.78,1.94,7.68.23,7.7-5.81,0-1.33,0-2.65,0-4l9.92-.06,10,.17,0,0-.06,9.91H89.79v10c-12,0-24,.17-35.92,0-3.88-.06-4.28,1.77-4.22,4.86s-.11,5.47,4.29,5.31c8.47-.31,17-.09,25.44-.09,10.25,0,10.25,0,10.37-10.08l20,.09v10h10c0,3.29,0,6.59.08,9.88,0,12,.09,23.95-.14,35.92-.08,3.84,1.7,4.34,4.82,4.25s5.45.18,5.34-4.25c-.28-12-.13-23.95-.15-35.92,0-3.29,0-6.59.07-9.88l9.95-.09c0,4.81.28,9.65,0,14.44-.27,4.15.7,6.45,5.37,5.65,3.72-.63,4.9,1,4.8,4.71-.13,4.9-1.43,12.06,1.13,14.16,3.14,2.58,9.74.94,14.85,1.12a4.17,4.17,0,0,1,.5,0c2.62.27,3.53-1,3.45-3.52a87,87,0,0,1,0-11c.42-4.33-1-6.27-5.47-5.55-3.28.52-5.19-.65-4.59-4.31.77-4.66-1.24-6.35-5.76-5.69-2.69.38-4.79-.33-4.22-3.66.94-5.5-1.65-7.07-6.63-6.35a22.47,22.47,0,0,1-3.48,0l.09-9.95,20-.09c.11,10.09.11,10.09,10,10.07.12,2.55.25,5.1.39,8,3.95,0,7.42,0,10.89,0,6.74.05,8.68,1.62,8.62,8.15-.05,4.27,2.46,3.8,5.19,3.89,3,.09,5.26-.06,5-4.1a99.92,99.92,0,0,1,0-12c.16-3.1-1.06-4.05-4.06-4-8.66.15-17.33,0-26,.06,0-9.93,0-9.93-10.08-10.05v-10h10c12,0,24-.1,35.92.14,3.85.07,4.34-1.7,4.25-4.83s.18-5.44-4.25-5.34c-12,.28-24,.13-35.92.15l-19.88-.07v-10l9.88-.07c3.3,0,6.59,0,9.89.06,10.21,0,10.21,0,10.23-10v0c10,0,10,0,10-10v0c10,0,10,0,10-10v0h10v0c0,4.48-.3,9,.08,13.42.43,5-.89,7.54-6.39,6.62-3.81-.63-3.81,2-3.69,4.69s-.8,5.56,3.63,5.32c4.13-.22,8.29.11,12.42-.09,3.06-.14,4.46,1,3.92,4-1,5.38,1.66,6.74,6.39,6.05a25.24,25.24,0,0,1,3.48,0v20c-5,0-10,.19-15-.08-3.61-.19-5,.81-4.92,4.69.25,11.83.12,23.66.14,35.49l.06-.05L190,199.67c-10.32,0-10.32,0-10.2,10.1q-.1,5-.2,9.91c-11.26,0-22.52.21-33.77-.12-4.65-.13-6.88,1-6.08,5.93.52,3.26-1,4.36-4.22,4.24-5.29-.2-10.59,0-15.89,0l-9.9.1,0-.11a24.87,24.87,0,0,1,.09-4c.94-5.24-1.44-6.44-6.32-6.19C95.5,220,87.55,219.69,79.61,219.71Zm4.67-10.05c4,0,8-.09,12,0,2.61.09,3.55-1,3.47-3.54-.12-3.82.21-7.67-.09-11.48s1-5.67,5-5c4.39.73,5.08-1.48,5.21-5.38.15-4.52-2.08-4.83-5.48-4.65a62.49,62.49,0,0,1-9.48,0c-4.24-.44-5.83,1.23-5.19,5.32.58,3.72-1,4.94-4.71,4.84-4.91-.14-12.09-1.42-14.19,1.14-2.57,3.16-.92,9.77-1.1,14.89,0,.17,0,.34,0,.5-.28,2.69,1.12,3.47,3.58,3.39C77,209.58,80.62,209.67,84.28,209.66Z"/><path class="cls-2" d="M109.69,229.83l9.9-.1v10.09h10.13q.06,39.9.11,79.81v9.79l-9.78.52v19.84h9.7v169.6H109.69Z"/><path class="cls-1" d="M69.6,39.61V0h30V9.84h30.18v9.77h20.09l0-.05c0,2.32-.34,4.7.08,7a4.48,4.48,0,0,0,2.68,3c7.16,1.2,7.18,1.09,7.18,8.34a47.53,47.53,0,0,1,0,6c-.55,4.42.88,6.64,5.65,5.83,3.57-.59,4.68,1.14,4.44,4.53a57.12,57.12,0,0,0,0,10c.46,4.38-1,6.22-5.5,5.52-3.32-.53-5.16.72-4.56,4.34.79,4.71-1.32,6.3-5.79,5.66-2.72-.39-4.76.39-4.19,3.68,1,5.56-1.73,7-6.65,6.33a22.61,22.61,0,0,0-3.49,0l-9.85-.2q0-27.49,0-55c0-2.55.37-5.45-3.59-4.83-5.39.84-7.24-1.46-6.46-6.59a12.29,12.29,0,0,0-.35-3.07c-1.36-.14-2.49-.2-3.6-.39-4.79-.79-6.66,1.11-6.07,6a43.57,43.57,0,0,1,0,9c-.36,3.85.89,5.69,5,5.06,3.75-.58,5.26.69,5.19,4.86-.26,15-.12,30-.14,45l-9.85.2-10.11-.07v0c0-10,0-10-10-10v0c0-8.6-.12-17.2,0-25.79.07-3.22-1-4.73-4.23-4.21-4.91.79-6.56-1.4-5.86-6a26.28,26.28,0,0,0,0-4c5.31,0,10.64-.11,16,.06,2.94.09,4.26-.79,4.1-3.94a106,106,0,0,1,0-12c.2-3.36-1.18-4.63-4.35-4.14C90.83,20.41,89,18.54,89.7,14c.7-4.28-2-4.24-5.13-4.37-3.56-.14-5.07.75-4.94,4.67.28,8.47.09,17,.09,25.43Zm80.11,15.31c0-3.16-.18-6.32,0-9.46.28-3.88-.27-6-5.18-6-4.63.06-5.05,2.05-4.93,5.73.22,6.3.22,12.62,0,18.92-.13,3.69.32,5.66,4.94,5.72,4.91.08,5.46-2.1,5.17-6C149.53,60.9,149.71,57.9,149.71,54.92Zm-50,4.58c0,2.32-.36,4.72.14,6.93a4.81,4.81,0,0,0,3.08,3.1c6.4.86,6.76.4,6.77-6,0-3.48.16-7-.09-10.43-.09-1.17-1-3-1.92-3.28-5.49-1.85-8,0-8,5.66C99.71,56.85,99.71,58.17,99.72,59.5Z"/><path class="cls-3" d="M129.75,349.78h-9.7V329.94l9.78-.52v-9.79h9.82V309.9h59.84v19.62H190v9.9H169.94v10.36Z"/><path class="cls-4" d="M139.6,89.73a22.61,22.61,0,0,1,3.49,0c4.92.69,7.62-.77,6.65-6.33-.57-3.29,1.47-4.07,4.19-3.68,4.47.64,6.58-1,5.79-5.66-.6-3.62,1.24-4.87,4.56-4.34,4.46.7,6-1.14,5.5-5.52a57.12,57.12,0,0,1,0-10c.24-3.39-.87-5.12-4.44-4.53-4.77.81-6.2-1.41-5.65-5.83a47.53,47.53,0,0,0,0-6c0-7.25,0-7.14-7.18-8.34a4.48,4.48,0,0,1-2.68-3c-.42-2.25-.1-4.63-.08-7h40V39.63a21.93,21.93,0,0,1-4,0c-5.21-.9-6.49,1.39-6.24,6.32.41,7.94.11,15.91.11,23.87,0,9.86,0,9.86,10,9.84a26.41,26.41,0,0,0,0,4c.72,4.73-1,6.73-5.93,6.09-2.45-.33-5,.18-7.46-.11-4.92-.57-7.64.76-6.67,6.34.48,2.76-.9,4.16-3.68,3.68-5.56-1-7,1.74-6.31,6.66a23.83,23.83,0,0,1,0,3.48h-9.72c-.19-3.91-.33-6.82-.47-9.85l-9.86-.57Z"/><path class="cls-1" d="M159.65,109.78a23.83,23.83,0,0,0,0-3.48c-.7-4.92.75-7.63,6.31-6.66,2.78.48,4.16-.92,3.68-3.68-1-5.58,1.75-6.91,6.67-6.34,2.46.29,5-.22,7.46.11,4.89.64,6.65-1.36,5.93-6.09a26.41,26.41,0,0,1,0-4v0l29.84,0v20l-9.84,0v0c0-1.32,0-2.63,0-4,0-6.36,0-6.23-6.23-6.12-2.68,0-4,.79-3.8,3.66.16,2.12,0,4.27,0,6.41v0c-10,0-10,0-10,10v0c-10,0-10,0-10,10v0l-19.86,0Z"/><path class="cls-4" d="M69.6,39.61l10.12.07v0a26.28,26.28,0,0,1,0,4c-.7,4.65.95,6.84,5.86,6,3.25-.52,4.3,1,4.23,4.21-.17,8.59,0,17.19,0,25.79-5.33,0-10.67-.14-16,0-3,.1-4.48-.92-4-4,.74-4.71-1-6.87-5.91-6.07-3.4.55-4.22-1.21-4.16-4.34.16-8.49.06-17,.07-25.48Z"/><path class="cls-4" d="M129.72,239.82H119.59V229.73c5.3,0,10.6-.2,15.89,0,3.23.12,4.74-1,4.22-4.24-.8-4.94,1.43-6.06,6.08-5.93,11.25.33,22.51.12,33.77.12v9.84h-9.73v10.3Z"/><path class="cls-1" d="M189.72,79.66c-10,0-10,0-10-9.84,0-8,.3-15.93-.11-23.87-.25-4.93,1-7.22,6.24-6.32a21.93,21.93,0,0,0,4,0l9.92.21c0,8.65-.08,17.3,0,26,0,2.65-.68,4.36-3.61,3.84-6-1.08-7.17,2-6.45,7a21.44,21.44,0,0,1,0,3Z"/><path class="cls-4" d="M209.71,99.66l9.84,0v9.84h10v30.14a25.24,25.24,0,0,0-3.48,0c-4.73.69-7.36-.67-6.39-6.05.54-3-.86-4.16-3.92-4-4.13.2-8.29-.13-12.42.09-4.43.24-3.52-2.79-3.63-5.32s-.12-5.32,3.69-4.69c5.5.92,6.82-1.64,6.39-6.62C209.41,108.64,209.71,104.14,209.71,99.66Z"/><path class="cls-4" d="M189.71,79.68a21.44,21.44,0,0,0,0-3c-.72-5,.46-8.12,6.45-7,2.93.52,3.64-1.19,3.61-3.84-.1-8.66,0-17.31,0-26h9.8V69.47h10V79.66Z"/><path class="cls-4" d="M209.77,199.78c0-11.83.11-23.66-.14-35.49-.08-3.88,1.31-4.88,4.92-4.69,5,.27,10,.08,15,.08v19.78H219.9v20.32Z"/><path class="cls-4" d="M39.73,189.5q0-4.92,0-9.84v0c5.13,0,10.27.22,15.38-.08,3.84-.23,4.8,1.25,4.69,4.86-.23,8.43-.09,16.87-.11,25.31h-9.8V189.5Z"/><path class="cls-4" d="M179.75,209.77c-.12-10.1-.12-10.11,10.2-10.1l19.88.06v10Z"/><path class="cls-4" d="M79.61,219.71c7.94,0,15.89.26,23.81-.14,4.88-.25,7.26,1,6.32,6.19a24.87,24.87,0,0,0-.09,4h-30Z"/><path class="cls-4" d="M149.82,19.61H129.73V9.84h20.09Z"/><path class="cls-4" d="M49.67,59.57c0,4.95-.21,9.93.12,14.86.27,4.09-1,5.85-5.23,5.27a38.86,38.86,0,0,0-5-.07V59.57Z"/><path class="cls-4" d="M19.61,149.71c5.12,0,10.25.25,15.34-.13,4.23-.31,4.77,1.6,4.88,5.2.13,4-1.25,5.19-5.11,5-4.93-.3-9.89-.08-14.84-.08Z"/><path class="cls-5" d="M149.72,129.68v10h0c-9.94,0-9.94,0-10,10l0,0c-10,.07-10,.07-10,10l0,0h-10l0,0c-.07-10-.07-10-10-10l0,0c-.07-10-.07-10-10-10l0,0,0-10,0,0c10-.07,10-.07,10-10l0,0c10-.07,10-.07,10-10l0,0h10l0,0c.07,10,.07,10,10,10l0,0c.07,10,.07,10,10,10Z"/><path class="cls-6" d="M159.65,109.78l.21,9.85c-.09,3.33-.17,6.65-.26,10l-9.88.07h0c0-10,0-10-10-10l0,0c0-10,0-10-10-10l0,0a28.58,28.58,0,0,1,0-4.44c.74-4.71-1.37-5.94-5.79-5.69-3.09.17-4.62.86-4.28,4.2.19,2,0,3.95,0,5.93l0,0c-10,0-10,0-10,10l0,0c-10,0-10,0-10,10l0,0-10,0,0,0V109.9H99.77V99.78h10v-10l9.85-.2h10.08l9.85.2v9.63l9.86.57c.14,3,.28,5.94.47,9.85Z"/><path class="cls-4" d="M84.28,209.67c-3.66,0-7.32-.09-11,0-2.46.08-3.86-.7-3.58-3.39,0-.16,0-.33,0-.5.18-5.12-1.47-11.73,1.1-14.89,2.1-2.56,9.28-1.28,14.19-1.14,3.75.1,5.29-1.12,4.71-4.84-.64-4.09,1-5.76,5.19-5.32a62.49,62.49,0,0,0,9.48,0c3.4-.18,5.63.13,5.48,4.65-.13,3.9-.82,6.11-5.21,5.38-4-.66-5.32,1.09-5,5s0,7.66.09,11.48c.08,2.55-.86,3.63-3.47,3.54C92.28,209.57,88.28,209.66,84.28,209.67Z"/><path class="cls-4" d="M49.71,109.66c0,10,0,10-9.92,10h-4c-6,0-7.61,2-5.91,7.83.28.94,2,2,3.15,2.07a117.09,117.09,0,0,0,13,.05c4.4-.24,3.63,2.7,3.71,5.3s.19,4.93-3.7,4.81c-7.49-.22-15-.19-22.47,0-3.21.07-3.92-1.31-3.88-4.18.11-8.65,0-17.31,0-26l0,0,30.09.06Z"/><path class="cls-4" d="M139.63,169.63a22.47,22.47,0,0,0,3.48,0c5-.72,7.57.85,6.63,6.35-.57,3.33,1.53,4,4.22,3.66,4.52-.66,6.53,1,5.76,5.69-.6,3.66,1.31,4.83,4.59,4.31,4.5-.72,5.89,1.22,5.47,5.55a87,87,0,0,0,0,11c.08,2.53-.83,3.79-3.45,3.52a4.17,4.17,0,0,0-.5,0c-5.11-.18-11.71,1.46-14.85-1.12-2.56-2.1-1.26-9.26-1.13-14.16.1-3.72-1.08-5.34-4.8-4.71-4.67.8-5.64-1.5-5.37-5.65.31-4.79.05-9.63,0-14.44Z"/><path class="cls-6" d="M149.72,139.66l19.88.07v9.88h-10v10l.05,0-20,.09v-10l0,0c10.05,0,10.05,0,10-10Z"/><path class="cls-4" d="M169.6,149.61v-9.88c12,0,24,.13,35.92-.15,4.43-.1,4.16,2.34,4.25,5.34s-.4,4.9-4.25,4.83C193.55,149.51,181.57,149.63,169.6,149.61Z"/><path class="cls-4" d="M89.75,159.59c-.12,10.08-.12,10.08-10.37,10.08-8.48,0-17-.22-25.44.09-4.4.16-4.23-2.26-4.29-5.31s.34-4.92,4.22-4.86c12,.21,23.95.06,35.92,0Z"/><path class="cls-4" d="M129.65,179.56c0,12-.13,23.95.15,35.92.11,4.43-2.34,4.16-5.34,4.25s-4.9-.41-4.82-4.25c.23-12,.12-23.95.14-35.92Z"/><path class="cls-4" d="M169.71,169.68c8.66,0,17.33.09,26-.06,3-.05,4.22.9,4.06,4a99.92,99.92,0,0,0,0,12c.3,4-2,4.19-5,4.1-2.73-.09-5.24.38-5.19-3.89.06-6.53-1.88-8.1-8.62-8.15-3.47,0-6.94,0-10.89,0-.14-2.91-.27-5.46-.39-8Z"/><path class="cls-6" d="M89.79,159.63v-10h9.83l10.11.09,0,0c0,3.34,0,6.67,0,10l0,0-20-.09Z"/><path class="cls-4" d="M49.72,99.66c-5.47,0-10.94-.16-16.4.06-4.44.18-3.49-2.83-3.61-5.35-.14-2.67-.13-5,3.72-4.75a74.93,74.93,0,0,0,11.41,0c4.12-.38,5.34,1.33,4.9,5.11a43.33,43.33,0,0,0,0,5Z"/><path class="cls-4" d="M159.6,129.61c.09-3.33.17-6.65.26-10l19.86,0c0,10,0,10-10.23,10C166.19,129.66,162.9,129.63,159.6,129.61Z"/><path class="cls-4" d="M49.71,99.68c4.92,0,9.86.23,14.77-.08,4-.26,5.85.94,5.27,5.16a36.67,36.67,0,0,0,0,4.92v0h-20v-10Z"/><path class="cls-7" d="M109.73,149.68l-10.11-.09.06-9.91C109.66,139.64,109.66,139.64,109.73,149.68Z"/><path class="cls-6" d="M89.67,139.53l-9.92.06,0,0v-10H89.7l0,0Z"/><path class="cls-6" d="M119.7,169.68h-10v-10l0,0,10,0,0,0c0,3.34,0,6.67,0,10Z"/><path class="cls-4" d="M169.72,169.66c-9.93,0-9.93,0-10-10.07l-.05,0c10.09.12,10.09.12,10.08,10.05Z"/><path class="cls-4" d="M179.71,119.68c0-10,0-10,10-10C189.7,119.66,189.7,119.66,179.71,119.68Z"/><path class="cls-4" d="M39.72,179.66h-4c-6,0-7.66-1.92-5.78-7.72.39-1.21,3.53-2.07,5.41-2.11,1.42,0,3.77,1.29,4.11,2.46.66,2.29.2,4.9.21,7.38Z"/><path class="cls-6" d="M129.65,179.56h-9.87c0-3.29,0-6.59-.08-9.88l0,0h10v0C129.7,173,129.67,176.27,129.65,179.56Z"/><path class="cls-4" d="M89.71,79.66c10,0,10,0,10,10C89.72,89.66,89.72,89.66,89.71,79.66Z"/><path class="cls-7" d="M89.67,139.53l0-9.85,10,0,0,10Z"/><path class="cls-4" d="M79.75,139.59c0,1.33,0,2.65,0,4,0,6-1.92,7.75-7.7,5.81-1.28-.43-2-3.83-2.12-5.92-.07-1.2,1.37-3.33,2.48-3.6,2.35-.58,4.94-.21,7.42-.23Z"/><path class="cls-4" d="M109.82,89.73v10h-10l-.06-10.12Z"/><path class="cls-4" d="M199.71,99.68c0-2.14.13-4.29,0-6.41-.2-2.87,1.12-3.61,3.8-3.66,6.22-.11,6.22-.24,6.23,6.12,0,1.32,0,2.63,0,4Z"/><path class="cls-4" d="M69.71,109.68h4c6,0,7.65,1.92,5.78,7.72-.4,1.21-3.53,2.07-5.42,2.1-1.42,0-3.76-1.28-4.1-2.45-.66-2.29-.21-4.9-.21-7.38Z"/><path class="cls-4" d="M189.71,109.68c0-10,0-10,10-10C199.7,109.66,199.7,109.66,189.71,109.68Z"/><path class="cls-6" d="M139.67,169.59l-9.95.09v-10l0,0,10,0v0l-.09,9.95Z"/><path class="cls-4" d="M129.75,89.53H119.67c0-15-.12-30,.14-45,.07-4.17-1.44-5.44-5.19-4.86-4.07.63-5.32-1.21-5-5.06a43.57,43.57,0,0,0,0-9c-.59-4.86,1.28-6.76,6.07-6,1.11.19,2.24.25,3.6.39a12.29,12.29,0,0,1,.35,3.07c-.78,5.13,1.07,7.43,6.46,6.59,4-.62,3.59,2.28,3.59,4.83Q129.72,62,129.75,89.53Z"/><path class="cls-4" d="M79.72,39.68c0-8.48.19-17-.09-25.43C79.5,10.33,81,9.44,84.57,9.58c3.12.13,5.83.09,5.13,4.37-.74,4.59,1.13,6.46,5.72,5.73,3.17-.49,4.55.78,4.35,4.14a106,106,0,0,0,0,12c.16,3.15-1.16,4-4.1,3.94-5.31-.17-10.64,0-16-.06Z"/><path class="cls-4" d="M149.71,54.92c0,3-.18,6,0,8.95.29,3.88-.26,6.06-5.17,6-4.62-.06-5.07-2-4.94-5.72.22-6.3.22-12.62,0-18.92-.12-3.68.3-5.67,4.93-5.73,4.91-.06,5.46,2.1,5.18,6C149.53,48.6,149.71,51.76,149.71,54.92Z"/><path class="cls-4" d="M99.72,59.5c0-1.33,0-2.65,0-4,0-5.63,2.5-7.51,8-5.66.93.31,1.83,2.11,1.92,3.28.25,3.46.1,7,.09,10.43,0,6.36-.37,6.82-6.77,6a4.81,4.81,0,0,1-3.08-3.1C99.36,64.22,99.72,61.82,99.72,59.5Z"/><path class="cls-7" d="M119.7,109.69c0-2,.17-4,0-5.93-.34-3.34,1.19-4,4.28-4.2,4.42-.25,6.53,1,5.79,5.69a28.58,28.58,0,0,0,0,4.44Z"/><path class="cls-7" d="M149.7,139.67c0,10,0,10-10,10C139.76,139.67,139.76,139.67,149.7,139.67Z"/><path class="cls-7" d="M139.69,119.66c10.05,0,10.05,0,10,10C139.76,129.67,139.76,129.67,139.69,119.66Z"/><path class="cls-7" d="M119.73,159.68l-10,0c0-3.34,0-6.67,0-10C119.66,149.72,119.66,149.72,119.73,159.68Z"/><path class="cls-7" d="M139.71,159.66l-10,0c.07-10,.07-10,10-10C139.72,153,139.71,156.32,139.71,159.66Z"/><path class="cls-7" d="M129.72,159.65v10h-10c0-3.34,0-6.67,0-10Z"/><path class="cls-7" d="M99.7,129.69c0-10,0-10,10-10C109.66,129.62,109.66,129.62,99.7,129.69Z"/><path class="cls-7" d="M129.69,109.66c10,0,10,0,10,10C129.76,119.62,129.76,119.62,129.69,109.66Z"/><path class="cls-7" d="M109.7,119.69c0-10,0-10,10-10C119.66,119.62,119.66,119.62,109.7,119.69Z"/></g></g></svg>